# Blender v2.64 (sub 0) OBJ File: 'C(T).blend'
# www.blender.org
mtllib C(g).mtl
usemtl wall
o Mur_2.001
v 16.000000 4.000000 1.999999
v 2.000000 4.000000 1.999999
v 16.000000 0.000000 2.000001
v 2.000000 0.000000 2.000001
vt 0.000000 0.000000
vt 1.000000 0.000000
vt 1.000000 1.000000
vt 0.000000 1.000000
vn 0.000000 -0.000001 -1.000000
s off
f 2/1/1 1/2/1 3/3/1
f 2/1/1 3/3/1 4/4/1
usemtl wall
o Mur_4
v 1.999999 0.000000 16.000000
v 2.000001 4.000000 16.000000
v 1.999999 0.000000 2.000000
v 2.000001 4.000000 2.000000
vt 1.000000 1.000000
vt 1.000000 0.000000
vt 0.000000 0.000000
vt 0.000000 1.000000
vn -1.000000 0.000001 0.000000
s off
f 7/5/2 5/6/2 6/7/2
f 7/5/2 6/7/2 8/8/2
usemtl ceiling
o Toiture_2
v -2.000000 3.999994 2.000000
v 2.000000 3.999989 2.000000
v -2.000000 4.000011 16.000000
v 2.000000 4.000006 16.000000
vt 1.000000 1.000000
vt 1.000000 0.000000
vt 0.000000 0.000000
vt 0.000000 1.000000
vn -0.000001 -1.000000 0.000001
s off
f 11/9/3 9/10/3 10/11/3
f 11/9/3 10/11/3 12/12/3
usemtl floor
o Sol_2
v 2.000000 0.000000 16.000000
v -2.000000 0.000000 16.000000
v 2.000000 0.000000 2.000000
v -2.000000 0.000000 2.000000
vt 0.000000 0.000000
vt 1.000000 0.000000
vt 1.000000 1.000000
vt 0.000000 1.000000
vn 0.000000 1.000000 -0.000000
s off
f 14/13/4 13/14/4 15/15/4
f 14/13/4 15/15/4 16/16/4
usemtl wall
o Mur_3
v -2.000006 0.000000 2.000000
v -1.999997 0.000000 16.000000
v -2.000003 4.000000 2.000000
v -1.999994 4.000000 16.000000
vt 0.000000 0.000000
vt 1.000000 0.000000
vt 1.000000 1.000000
vt 0.000000 1.000000
vn 1.000000 -0.000001 -0.000001
s off
f 18/17/5 17/18/5 19/19/5
f 18/17/5 19/19/5 20/20/5
usemtl wall
o Mur_2
v -2.000000 4.000000 1.999999
v -16.000000 4.000000 1.999999
v -2.000000 0.000000 2.000001
v -16.000000 0.000000 2.000001
vt 0.000000 0.000000
vt 1.000000 0.000000
vt 1.000000 1.000000
vt 0.000000 1.000000
s off
f 22/21/1 21/22/1 23/23/1
f 22/21/1 23/23/1 24/24/1
usemtl ceiling
o Toiture_1
v 15.999997 4.000021 -2.000021
v -16.000002 3.999979 -1.999979
v 16.000002 4.000021 1.999979
v -15.999997 3.999979 2.000021
vt 0.000000 0.000000
vt 1.000000 0.000000
vt 1.000000 1.000000
vt 0.000000 1.000000
vn 0.000001 -1.000000 -0.000000
s off
f 26/25/6 25/26/6 27/27/6
f 26/25/6 27/27/6 28/28/6
usemtl wall
o Mur_1
v 16.000000 4.000000 -2.000001
v -16.000000 4.000000 -2.000001
v 16.000000 0.000000 -1.999999
v -16.000000 0.000000 -1.999999
vt 1.000000 1.000000
vt 1.000000 0.000000
vt 0.000000 0.000000
vt 0.000000 1.000000
vn 0.000000 0.000001 1.000000
s off
f 31/29/7 29/30/7 30/31/7
f 31/29/7 30/31/7 32/32/7
usemtl floor
o Sol_1
v 16.000000 0.000000 2.000000
v -16.000000 0.000000 2.000000
v 16.000000 0.000000 -2.000000
v -16.000000 0.000000 -2.000000
vt 0.000000 0.000000
vt 1.000000 0.000000
vt 1.000000 1.000000
vt 0.000000 1.000000
s off
f 34/33/4 33/34/4 35/35/4
f 34/33/4 35/35/4 36/36/4
