# Blender v2.64 (sub 0) OBJ File: ''
# www.blender.org
mtllib col2.mtl
o Cylinder
v -11.126047 -0.000008 48.746395
v -11.126047 400.000000 48.746460
v -31.174490 400.000000 39.091640
v -31.174490 -0.000006 39.091576
v 45.048443 0.000004 -21.694187
v 45.048443 400.000000 -21.694122
v 50.000000 400.000000 0.000065
v 50.000000 0.000000 0.000000
v -45.048443 0.000004 -21.694187
v -45.048443 400.000000 -21.694122
v -31.174490 400.000000 -39.091511
v -31.174490 0.000006 -39.091576
v 45.048443 -0.000004 21.694187
v 45.048443 400.000000 21.694252
v 31.174490 400.000000 39.091640
v 31.174490 -0.000006 39.091576
v 31.174490 0.000006 -39.091576
v 31.174490 400.000000 -39.091511
v -50.000000 0.000000 0.000000
v -50.000000 400.000000 0.000065
v 11.126047 -0.000008 48.746395
v 11.126047 400.000000 48.746460
v 11.126047 0.000008 -48.746395
v 11.126047 400.000000 -48.746330
v -45.048443 -0.000004 21.694187
v -45.048443 400.000000 21.694252
v -11.126047 0.000008 -48.746395
v -11.126047 400.000000 -48.746330
vt 0.714286 0.000000
vt 0.714286 1.000000
vt 0.642857 1.000000
vt 0.642857 0.000000
vt 0.071429 0.000000
vt 0.071429 1.000000
vt 0.000000 1.000000
vt 0.000000 0.000000
vt 0.428571 0.000000
vt 0.428571 1.000000
vt 0.357143 1.000000
vt 0.357143 0.000000
vt 0.928571 0.000000
vt 0.928571 1.000000
vt 0.857143 1.000000
vt 0.857143 0.000000
vt 0.142857 0.000000
vt 0.142857 1.000000
vt 0.500000 0.000000
vt 0.500000 1.000000
vt 0.785714 0.000000
vt 0.785714 1.000000
vt 0.214286 0.000000
vt 0.214286 1.000000
vt 0.571429 0.000000
vt 0.571429 1.000000
vt 1.000000 0.000000
vt 1.000000 1.000000
vt 0.285714 0.000000
vt 0.285714 1.000000
vn -0.433884 -0.000000 0.900969
vn 0.974928 0.000000 -0.222521
vn -0.781832 0.000000 -0.623490
vn 0.781832 -0.000000 0.623490
vn 0.781832 0.000000 -0.623490
vn -0.974928 0.000000 -0.222521
vn 0.000000 -0.000000 1.000000
vn 0.433884 0.000000 -0.900969
vn -0.974928 -0.000000 0.222521
vn 0.974928 -0.000000 0.222521
vn 0.000000 0.000000 -1.000000
vn -0.781832 -0.000000 0.623490
vn 0.433884 -0.000000 0.900969
vn -0.433884 0.000000 -0.900969
usemtl 
s off
f 1/1/1 2/2/1 3/3/1
f 1/1/1 3/3/1 4/4/1
f 5/5/2 6/6/2 7/7/2
f 5/5/2 7/7/2 8/8/2
f 9/9/3 10/10/3 11/11/3
f 9/9/3 11/11/3 12/12/3
f 13/13/4 14/14/4 15/15/4
f 13/13/4 15/15/4 16/16/4
f 17/17/5 18/18/5 6/6/5
f 17/17/5 6/6/5 5/5/5
f 19/19/6 20/20/6 10/10/6
f 19/19/6 10/10/6 9/9/6
f 2/2/7 1/1/7 21/21/7
f 2/2/7 21/21/7 22/22/7
f 23/23/8 24/24/8 18/18/8
f 23/23/8 18/18/8 17/17/8
f 25/25/9 26/26/9 20/20/9
f 25/25/9 20/20/9 19/19/9
f 8/27/10 7/28/10 14/14/10
f 8/27/10 14/14/10 13/13/10
f 27/29/11 28/30/11 24/24/11
f 27/29/11 24/24/11 23/23/11
f 4/4/12 3/3/12 26/26/12
f 4/4/12 26/26/12 25/25/12
f 16/16/13 15/15/13 22/22/13
f 16/16/13 22/22/13 21/21/13
f 12/12/14 11/11/14 28/30/14
f 12/12/14 28/30/14 27/29/14
