# Blender v2.67 (sub 0) OBJ File: ''
# www.blender.org
mtllib mur2.mtl
o Cube_Cube.002
v -200.000000 359.839996 201.760010
v -200.000000 359.839996 -201.760010
v -160.000000 378.840027 -201.760010
v -160.000000 378.840027 201.760010
v -200.000000 400.160004 201.760010
v -200.000000 400.160004 -201.760010
v -160.000000 400.160004 -201.760010
v -160.000000 400.160004 201.760010
vt 0.107617 0.889115
vt 0.892383 0.889115
vt 0.107617 0.810701
vt 0.892383 0.810701
vt 0.107617 0.847652
vt 0.892383 0.847652
vn -1.000000 0.000000 0.000000
vn 0.000000 0.000000 -1.000000
vn 1.000000 -0.000000 0.000000
vn 0.000000 -0.000000 1.000000
vn 0.429057 -0.903277 0.000000
vn 0.000000 1.000000 0.000000
g Cube_Cube.002_None
usemtl Goutiere
s off
f 5/1/1 6/2/1 1/3/1
f 6/2/2 7/2/2 2/4/2
f 7/2/3 8/1/3 4/5/3
f 8/1/4 5/1/4 4/5/4
f 1/3/5 2/4/5 3/6/5
f 8/1/6 7/2/6 6/2/6
f 6/2/1 2/4/1 1/3/1
f 7/2/2 3/6/2 2/4/2
f 3/6/3 7/2/3 4/5/3
f 5/1/4 1/3/4 4/5/4
f 4/5/5 1/3/5 3/6/5
f 5/1/6 8/1/6 6/2/6
o Plane.001
v -200.000015 399.280029 -199.280014
v -200.000046 0.719989 -199.280014
v -199.999954 399.280029 199.280014
v -199.999985 0.719989 199.280014
vt 0.000000 0.000000
vt 0.000000 1.000000
vt 1.000000 1.000000
vt 1.000000 0.000000
g Plane.001_Plane.001_None_mur.jpg.001
usemtl Mur
s off
f 10/7/3 9/8/3 11/9/3
f 12/10/3 10/7/3 11/9/3
