# Blender v2.64 (sub 0) OBJ File: ''
# www.blender.org
mtllib solplafond2.mtl
o Plane
v 200.000000 0.000065 -200.000000
v -200.000000 0.000065 -200.000000
v -200.000000 0.000000 200.000000
v 200.000000 0.000000 200.000000
vt 1.000000 1.000000
vt 0.000000 1.000000
vt 0.000000 0.000000
vt 1.000000 0.000000
vn -0.000000 1.000000 0.000000
usemtl Sol
s off
f 1/1/1 2/2/1 3/3/1
f 4/4/1 1/1/1 3/3/1
o Plane_1
v 200.000000 400.000031 200.000061
v -200.000000 400.000031 200.000061
v -200.000000 400.000031 -199.999939
v 200.000000 400.000031 -199.999939
vt 1.000000 1.000000
vt 0.000000 1.000000
vt 0.000000 0.000000
vt 1.000000 0.000000
vn 0.000000 -1.000000 0.000000
usemtl Plafond
s off
f 5/5/2 6/6/2 7/7/2
f 8/8/2 5/5/2 7/7/2
